<svg width="600" height="400" xmlns="http://www.w3.org/2000/svg">
  <defs>
    <linearGradient id="grad" x1="0%" y1="0%" x2="100%" y2="100%">
      <stop offset="0%" style="stop-color:#121218;stop-opacity:1" />
      <stop offset="100%" style="stop-color:#232330;stop-opacity:1" />
    </linearGradient>
  </defs>
  <rect width="600" height="400" fill="url(#grad)" />
  <rect x="60" y="60" width="150" height="280" fill="#181820" stroke="#2a2a35" stroke-width="1" />
  <rect x="240" y="60" width="300" height="280" fill="#181820" stroke="#2a2a35" stroke-width="1" />
  <text x="300" y="40" font-family="Arial" font-size="24" fill="#00ffe7" text-anchor="middle">AI Careers 2025</text>
  <text x="135" y="85" font-family="Arial" font-size="12" fill="#ffffff" text-anchor="middle">Navigation</text>
  <rect x="80" y="100" width="110" height="20" fill="#232330" rx="3" />
  <rect x="80" y="130" width="110" height="20" fill="#232330" rx="3" />
  <rect x="80" y="160" width="110" height="20" fill="#232330" rx="3" />
  <rect x="80" y="190" width="110" height="20" fill="#232330" rx="3" />
  <rect x="80" y="220" width="110" height="20" fill="#232330" rx="3" />
  <text x="390" y="85" font-family="Arial" font-size="16" fill="#ffffff" text-anchor="middle">Industry Impact Analysis</text>
  <rect x="260" y="110" width="260" height="80" fill="#232330" rx="5" />
  <rect x="260" y="200" width="260" height="80" fill="#232330" rx="5" />
  <text x="300" y="370" font-family="Arial" font-size="12" fill="#888888" text-anchor="middle">Leon Chlon</text>
  <text x="300" y="385" font-family="Arial" font-size="10" fill="#00ffe7" text-anchor="middle">Hassana Labs</text>
</svg>
